<svg width="272" height="74" viewBox="0 0 272 74" fill="none" xmlns="http://www.w3.org/2000/svg">
<path d="M30.5948 74L8.99847 55.4699C-2.99949 45.2423 -2.99949 28.6374 8.99847 18.4098L30.5948 0H30.7359L52.3323 18.4098C64.3302 28.6374 64.3302 45.2423 52.3323 55.4699L30.5948 74C30.7359 74 30.5948 74 30.5948 74Z" fill="url(#paint0_linear)"/>
<path d="M144.654 36.479C143.083 35.5793 141.736 35.242 139.828 35.242C135.675 35.242 132.87 38.1658 132.87 43.5636V58.2953H124.789V28.6071H132.87V34.2299C133.992 30.8562 137.022 27.7075 141.175 27.7075C142.97 27.7075 144.429 28.1573 145.327 28.9445L144.654 36.479Z" fill="black"/>
<path d="M167.324 28.6071H175.404V58.4077H167.324V53.5721C165.753 57.0582 162.274 59.1949 157.784 59.1949C149.928 59.1949 147.235 53.9095 147.235 47.2746V28.6071H155.315V45.5878C155.315 50.086 156.999 52.7849 160.927 52.7849C164.855 52.7849 167.324 49.5237 167.324 44.4632V28.6071Z" fill="black"/>
<path d="M185.842 48.1743C186.291 51.7729 188.984 53.5721 193.136 53.5721C196.054 53.5721 198.523 52.56 198.523 50.4234C198.523 48.3992 197.177 47.4996 194.259 47.0497L189.545 46.2625C183.26 45.2504 179.669 42.8889 179.669 37.3786C179.669 31.7558 184.495 27.8199 192.014 27.8199C200.207 27.8199 205.145 31.5309 205.706 38.1658L199.085 38.3907C198.523 35.017 196.279 33.3302 192.014 33.3302C189.096 33.3302 187.188 34.5672 187.188 36.5914C187.188 38.1658 188.311 39.1779 190.443 39.5152L196.054 40.4149C202.339 41.427 206.043 44.0134 206.043 49.6362C206.043 55.7088 200.768 59.0824 193.136 59.0824C185.393 59.0824 179.445 55.7088 178.883 48.3992L185.842 48.1743Z" fill="black"/>
<path d="M223.438 59.0825C214.235 59.0825 207.838 52.6725 207.838 43.4512C207.838 34.2299 214.348 27.7075 223.438 27.7075C232.641 27.7075 239.15 34.2299 239.15 43.4512C239.15 52.6725 232.753 59.0825 223.438 59.0825ZM223.438 53.0099C228.376 53.0099 230.957 49.074 230.957 43.4512C230.957 37.8284 228.376 33.8925 223.438 33.8925C218.5 33.8925 215.919 37.8284 215.919 43.4512C216.031 49.074 218.612 53.0099 223.438 53.0099Z" fill="black"/>
<path d="M271.135 48.6241C269.564 55.259 264.514 59.1949 256.882 59.1949C247.68 59.1949 241.17 53.3472 241.17 43.901C241.17 34.5672 247.792 27.8199 256.77 27.8199C266.422 27.8199 271.472 34.5672 271.472 42.664V45.5878H249.139C249.363 49.9736 252.842 53.1223 257.219 53.1223C261.147 53.1223 263.504 51.4355 264.738 48.0618L271.135 48.6241ZM263.504 40.4149C263.279 36.9288 261.147 33.6676 256.658 33.6676C252.169 33.6676 250.036 36.7038 249.251 40.4149H263.504Z" fill="black"/>
<path d="M112.893 41.8768H112.107C110.985 47.3871 107.282 51.6604 100.211 51.6604C92.6919 51.6604 87.6416 46.0376 87.6416 37.0412C87.6416 28.0448 92.5797 22.422 100.211 22.422C107.169 22.422 110.873 26.6953 111.995 32.0932L120.076 31.7558H120.188C118.841 21.9722 112.107 15 100.323 15C88.2027 15 79 23.9964 79 37.0412C79 50.086 88.2027 59.0825 100.323 59.0825C112.22 59.0825 119.066 52.1102 120.3 42.2142L112.893 41.8768Z" fill="black"/>
<defs>
<linearGradient id="paint0_linear" x1="52.8571" y1="17.9337" x2="9.43878" y2="57.5765" gradientUnits="userSpaceOnUse">
<stop stop-color="#F4BF45"/>
<stop offset="0.346856" stop-color="#E48047"/>
<stop offset="0.694794" stop-color="#C73361"/>
<stop offset="1" stop-color="#A42F5F"/>
</linearGradient>
</defs>
</svg>
