<?xml version="1.0" encoding="UTF-8"?>
<svg width="767px" height="200px" viewBox="0 0 767 200" version="1.1" xmlns="http://www.w3.org/2000/svg" xmlns:xlink="http://www.w3.org/1999/xlink">
    <title>__LOGO_MOD_Artboard 1</title>
    <g id="Page-1" stroke="none" stroke-width="1" fill="none" fill-rule="evenodd">
        <g id="Artboard" transform="translate(-26.000000, -90.000000)" fill-rule="nonzero">
            <g id="__LOGO_MOD_Artboard-1" transform="translate(26.000000, 90.000000)">
                <path d="M217.952298,19.1448269 C217.377571,10.6006175 211.540152,3.31097663 203.309871,0.859683743 C195.07959,-1.59160914 186.187803,1.31111021 181.005947,8.14078856 C177.953649,12.0767289 173.231806,14.3646221 168.241615,14.3255401 L167.700656,14.3255401 C162.601948,14.2728467 157.810506,11.8865832 154.706129,7.85392625 C150.804824,2.89864914 144.836357,0.00477959021 138.517642,0.00477959021 C132.198928,0.00477959021 126.230461,2.89864914 122.329155,7.85392625 C119.229512,11.8861493 114.441619,14.272759 109.346138,14.3255401 L108.79367,14.3255401 C103.803479,14.3646221 99.0816356,12.0767289 96.0293381,8.14078856 C91.0878152,1.69736489 82.8024412,-1.23891009 74.8901028,0.649200625 C66.9777644,2.53731134 60.9239329,8.8953317 59.4444065,16.8710018 C57.9648802,24.8466718 61.3374271,32.9426303 68.049095,37.526964 C71.05802,39.5440991 72.8652636,42.9196082 72.8716873,46.5344407 L72.8716873,47.6818899 C72.8341787,51.2453861 71.0279625,54.5588104 68.049095,56.5287237 C62.3952542,60.3455195 59.0085032,66.7094923 59.0085032,73.5167099 C59.0085032,80.3239276 62.3952542,86.6879003 68.049095,90.5046962 C71.0338844,92.4705824 72.8451397,95.7853395 72.883197,99.3515299 L72.883197,100.659622 C72.8451397,104.225812 71.0338844,107.54057 68.049095,109.506456 C62.3903342,113.322469 59,119.689338 59,126.500179 C59,133.31102 62.3903342,139.677889 68.049095,143.493903 C71.0369728,145.45696 72.849199,148.773494 72.883197,152.340737 L72.883197,153.648829 C72.8895122,157.158844 71.1360023,160.439828 68.2102317,162.392392 C60.6336613,167.408262 57.2582057,176.787485 59.9080823,185.461191 C62.557959,194.134898 70.604689,200.045921 79.6995309,200 C88.7943728,199.953542 96.7802773,193.961095 99.341375,185.260924 C101.902473,176.560753 98.4313411,167.216302 90.803904,162.277647 C87.7256639,160.330375 85.8456124,156.961836 85.8086652,153.327543 L85.8086652,152.662022 C85.795412,149.091512 87.6091374,145.760678 90.6197477,143.826663 C92.4868804,142.6429 94.1502967,141.166687 95.5459279,139.454881 C98.3287643,136.139379 102.454743,134.240594 106.79097,134.279885 L111.279779,134.279885 C115.703588,134.308386 119.887982,136.287046 122.708978,139.684371 C128.398272,146.452268 137.791534,148.834638 146.033342,145.600025 C154.27515,142.365412 159.518566,134.238673 159.053244,125.420555 C158.587923,116.602437 152.518139,109.069027 143.981393,106.71438 C135.444646,104.359732 126.353969,107.711509 121.408374,115.037161 C118.668236,119.032055 114.119995,121.4131 109.26557,121.39403 L108.805179,121.39403 C103.861361,121.337163 99.2596318,118.867562 96.4897288,114.784722 C94.9125119,112.543146 92.900947,110.639186 90.5737087,109.18517 C87.5810487,107.254741 85.7941649,103.925979 85.8431945,100.37276 L85.8431945,99.7301882 C85.8759051,96.0947779 87.7570072,92.7243565 90.8384333,90.780084 C96.6875263,86.9971708 100.217622,80.5190963 100.217622,73.5683451 C100.217622,66.617594 96.6875263,60.1395195 90.8384333,56.3566063 C87.7599658,54.4041377 85.8804801,51.032295 85.8431945,47.3950276 L85.8431945,46.9016244 C85.8635896,43.1872155 87.7642021,39.7342995 90.8959821,37.7220304 C92.7680674,36.5029574 94.4280981,34.9875411 95.8106526,33.2355038 C98.8657274,29.4148391 103.512901,27.2062637 108.413847,27.2458187 L109.725961,27.2458187 C114.71687,27.2821286 119.424444,29.5633436 122.536331,33.4535192 C126.441584,38.2590547 132.313904,41.0505933 138.517642,41.0505933 C144.721381,41.0505933 150.593701,38.2590547 154.498954,33.4535192 C157.604004,29.5504398 162.312609,27.2560727 167.309324,27.2113952 L168.621438,27.2113952 C173.618153,27.2560727 178.326757,29.5504398 181.431808,33.4535192 C187.0813,40.403367 196.596361,42.9028839 204.94757,39.6308885 C213.298779,36.358893 218.560815,28.0697241 217.952298,19.1448269 L217.952298,19.1448269 Z" id="Path" fill="#09AD4B"></path>
                <polygon id="Path" fill="#000000" points="275.082689 79.7100949 295.414992 79.7100949 295.414992 73.3137762 275.082689 73.3137762 275.082689 62.3963187 298 62.3963187 298 56 268 56 268 96 275.082689 96"></polygon>
                <polygon id="Path" fill="#000000" points="333 89.6036813 312.01435 89.6036813 312.01435 56 305 56 305 96 333 96"></polygon>
                <path d="M356.948562,95.9924647 C362.523699,96.1199349 367.912285,93.9990884 371.880504,90.1155328 C375.848723,86.2319773 378.056705,80.9183299 377.998893,75.3912497 L377.998893,75.2767985 C377.701873,63.9716591 368.353796,54.9690661 356.944118,55.0000799 C345.534439,55.0312543 336.23645,64.0846623 336.002155,75.3912497 L336.002155,75.4942558 C335.921431,81.0008511 338.111173,86.3016617 342.065013,90.1708999 C346.018853,94.0401382 351.394392,96.1427314 356.948562,95.9924647 L356.948562,95.9924647 Z M343.403835,75.2996887 C343.403835,67.562788 348.969528,61.245082 356.948562,61.245082 C364.927596,61.245082 370.597213,67.6772392 370.597213,75.4141399 L370.597213,75.517146 C370.597213,83.2540468 365.03152,89.5145271 357.064033,89.5145271 C349.096546,89.5145271 343.403835,83.1395956 343.403835,75.4141399 L343.403835,75.2996887 Z" id="Shape" fill="#000000"></path>
                <path d="M415.516111,95 L423,95 L405.302396,55 L398.709171,55 L381,95 L388.298816,95 L392.439824,85.4114286 L411.432939,85.4114286 L415.516111,95 Z M395.007711,79.2171429 L401.947948,63.32 L408.888185,79.2171429 L395.007711,79.2171429 Z" id="Shape" fill="#000000"></path>
                <polygon id="Path" fill="#000000" points="454 56 422 56 422 62.5113604 434.500532 62.5113604 434.500532 96 441.499468 96 441.499468 62.5113604 454 62.5113604"></polygon>
                <rect id="Rectangle" fill="#000000" x="462" y="56" width="7" height="40"></rect>
                <polygon id="Path" fill="#000000" points="514 96 514 56 507.048499 56 507.048499 83.6560253 485.535797 56 479 56 479 96 485.939954 96 485.939954 67.5386828 508.08776 96"></polygon>
                <path d="M543.502363,96 C549.561803,95.9972895 555.417873,93.8102946 560,89.8388289 L560,73.2002505 L543.161267,73.2002505 L543.161267,79.2133713 L553.280425,79.2133713 L553.280425,86.6272758 C550.494623,88.6163389 547.150708,89.6690072 543.729759,89.6338362 C535.657173,89.6338362 530.290609,83.6321039 530.290609,75.4893363 L530.290609,75.3754514 C530.290609,67.7907196 535.827721,61.3903903 543.104418,61.3903903 C547.211881,61.2810032 551.194805,62.8087926 554.178642,65.6382957 L558.59014,60.376815 C554.519737,56.9602692 550.278787,55.0014495 543.388664,55.0014495 C537.948355,54.9361794 532.712953,57.0775662 528.873299,60.9385314 C525.033646,64.7994966 522.916181,70.0517888 523.002542,75.5007248 L523.002542,75.6032211 C523.002542,87.1853117 531.131977,96 543.502363,96 Z" id="Path" fill="#000000"></path>
                <path d="M593.03342,83.1728502 L600.987746,83.1728502 C609.79391,83.1728502 617,78.4791487 617,69.5058959 L617,69.3678458 C617,61.3149267 611.163758,56 601.782027,56 L586,56 L586,96 L593.03342,96 L593.03342,83.1728502 Z M593.03342,62.4653437 L601.217973,62.4653437 C606.478648,62.4653437 609.851467,64.9272361 609.851467,69.6094334 L609.851467,69.7244751 C609.851467,73.9004889 606.536205,76.8685649 601.217973,76.8685649 L593.03342,76.8685649 L593.03342,62.4653437 Z" id="Shape" fill="#000000"></path>
                <path d="M642.94286,95.99236 C648.519506,96.1214487 653.909552,93.9736718 657.878846,90.0408029 C661.84814,86.1079341 664.056721,80.7268142 663.998892,75.1295512 L663.998892,75.0136467 C663.966997,63.3762136 654.53989,53.9681563 642.94286,54.000081 C631.345829,54.0321686 621.970434,63.4921181 622.002329,75.1295512 L622.002329,75.2338653 C621.918401,80.8093062 624.106117,86.1775216 628.059222,90.0962618 C632.012326,94.015002 637.388214,96.1446401 642.94286,95.99236 L642.94286,95.99236 Z M629.406013,75.0368276 C629.406013,67.2016839 634.961664,60.8037559 642.94286,60.8037559 C650.924055,60.8037559 656.595208,67.3175884 656.595208,75.1527321 L656.595208,75.2570462 C656.595208,83.0921899 651.028006,89.4321657 643.058362,89.4321657 C635.088717,89.4321657 629.406013,82.9762854 629.406013,75.1527321 L629.406013,75.0368276 Z" id="Shape" fill="#000000"></path>
                <rect id="Rectangle" fill="#000000" x="673" y="56" width="7" height="40"></rect>
                <polygon id="Path" fill="#000000" points="697.939954 67.5386828 720.08776 96 726 96 726 56 719.060046 56 719.060046 83.6560253 697.547344 56 691 56 691 96 697.939954 96"></polygon>
                <polygon id="Path" fill="#000000" points="745.507442 96 752.492558 96 752.492558 62.5113604 765 62.5113604 765 56 733 56 733 62.5113604 745.507442 62.5113604"></polygon>
                <path d="M284.16323,130.226829 L294.283506,130.226829 L294.283506,137.61067 C291.499547,139.602817 288.154422,140.656406 284.732425,140.618902 C276.638481,140.618902 271.265286,134.613834 271.265286,126.466539 L271.265286,126.352591 C271.265286,118.763643 276.809239,112.359755 284.106311,112.359755 C288.235191,112.2516 292.237211,113.793262 295.228369,116.644207 L299.633934,111.379801 C295.569886,107.961356 291.323696,106.001447 284.42506,106.001447 C278.977015,105.936214 273.734034,108.07844 269.887846,111.941196 C266.041658,115.803952 263.919005,121.059091 264.002366,126.512118 L264.002366,126.614672 C264.002366,138.169017 272.153229,147 284.493363,147 C290.559496,147.000591 296.42158,144.807281 301,140.824009 L301,124.187576 L284.151847,124.187576 L284.16323,130.226829 Z" id="Path" fill="#000000"></path>
                <path d="M342.723275,119.746621 L342.723275,119.631579 C342.805589,116.426745 341.614393,113.319956 339.41069,110.991947 C336.834235,108.484038 332.900541,107 327.90866,107 L310,107 L310,147 L317.02774,147 L317.02774,133.056946 L325.826793,133.056946 L335.661028,147 L344,147 L333.199594,131.860512 C338.755074,130.261432 342.723275,126.315502 342.723275,119.746621 Z M317.062246,126.83319 L317.062246,113.396319 L327.253045,113.396319 C332.451962,113.396319 335.534506,115.697153 335.534506,120.022721 L335.534506,120.137762 C335.534506,124.198735 332.336942,126.83319 327.310555,126.83319 L317.062246,126.83319 Z" id="Shape" fill="#000000"></path>
                <path d="M370.05152,106.007532 C364.476362,105.880042 359.087754,108.001219 355.11952,111.885379 C351.151286,115.76954 348.943295,121.084014 349.001107,126.611955 L349.001107,126.714977 C349.295337,138.0217 358.640843,147.027859 370.050323,146.999935 C381.459803,146.971882 390.760231,137.919983 390.998009,126.611955 L390.998009,126.497486 C391.075558,120.992006 388.884409,115.693372 384.930911,111.826043 C380.977414,107.958713 375.60368,105.857341 370.05152,106.007532 Z M383.596301,126.703531 C383.596301,134.441636 378.030585,140.703092 370.05152,140.703092 C362.072455,140.703092 356.402816,134.327167 356.402816,126.600508 L356.402816,126.486039 C356.402816,118.747934 361.968531,112.429244 369.936049,112.429244 C377.903567,112.429244 383.596301,118.862403 383.596301,126.600508 L383.596301,126.703531 Z" id="Shape" fill="#000000"></path>
                <path d="M426.019489,129.252691 C426.019489,136.697734 422.215054,140.449292 416.034274,140.449292 C409.853495,140.449292 405.980511,136.465439 405.980511,128.962323 L405.980511,106 L399,106 L399,129.229462 C399,140.93711 405.59207,147 415.920027,147 C426.247984,147 433,140.93711 433,128.88102 L433,106 L426.019489,106 L426.019489,129.252691 Z" id="Path" fill="#000000"></path>
                <path d="M458.78789,107 L443,107 L443,147 L450.036033,147 L450.036033,134.149842 L457.981798,134.149842 C466.791233,134.149842 474,129.45614 474,120.482888 L474,120.367846 C474,112.314927 468.173105,107 458.78789,107 Z M466.848811,120.65545 C466.848811,124.831464 463.532318,127.79954 458.21211,127.79954 L450.036033,127.79954 L450.036033,113.396319 L458.21211,113.396319 C463.47474,113.396319 466.848811,115.858211 466.848811,120.540408 L466.848811,120.65545 Z" id="Shape" fill="#000000"></path>
                <rect id="Rectangle" fill="#000000" x="493" y="133" width="274" height="8"></rect>
                <rect id="Rectangle" fill="#000000" x="493" y="114" width="274" height="8"></rect>
                <circle id="Oval" fill="#09AD4B" cx="20.5" cy="20.5" r="20.5"></circle>
                <circle id="Oval" fill="#09AD4B" cx="20.5" cy="73.5" r="20.5"></circle>
                <circle id="Oval" fill="#09AD4B" cx="138.5" cy="73.5" r="20.5"></circle>
                <circle id="Oval" fill="#09AD4B" cx="196.5" cy="73.5" r="20.5"></circle>
                <circle id="Oval" fill="#09AD4B" cx="20.5" cy="126.5" r="20.5"></circle>
                <circle id="Oval" fill="#09AD4B" cx="196.5" cy="126.5" r="20.5"></circle>
                <circle id="Oval" fill="#09AD4B" cx="20.5" cy="179.5" r="20.5"></circle>
                <circle id="Oval" fill="#09AD4B" cx="138.5" cy="179.5" r="20.5"></circle>
                <circle id="Oval" fill="#09AD4B" cx="196.5" cy="179.5" r="20.5"></circle>
            </g>
        </g>
    </g>
</svg>