<svg xmlns="http://www.w3.org/2000/svg" width="3501.438" height="1660.14" viewBox="0 0 3501.438 1660.14">
  <path id="Path_20136" data-name="Path 20136" d="M499.057,363.884c-93.207,0-205.759,36.931-263.793,119.586V384.987H4.884V1607.23h230.38V1102.505c58.035,82.655,170.586,117.828,263.793,117.828,211.035,0,402.724-163.552,402.724-427.345S710.092,363.884,499.057,363.884Zm-43.966,640.139c-107.276,0-212.793-84.414-212.793-211.035,0-124.862,100.241-212.793,212.793-212.793,116.069,0,211.035,93.207,211.035,212.793C666.126,914.333,571.161,1004.022,455.091,1004.022Zm949.656,216.311c233.9,0,441.414-168.828,441.414-427.345,0-260.276-207.517-429.1-441.414-429.1s-441.414,168.828-441.414,429.1C963.333,1051.505,1170.851,1220.333,1404.748,1220.333Zm0-214.552c-114.31,0-207.517-86.172-207.517-212.793,0-128.38,93.207-214.552,207.517-214.552s207.518,86.172,207.518,214.552C1612.265,919.608,1519.058,1005.781,1404.748,1005.781Zm842.38,214.552c168.828,0,344.69-84.414,344.69-256.759,0-66.828-24.621-189.931-221.586-242.69l-135.414-35.172c-45.724-12.31-80.9-31.655-80.9-70.345,0-42.207,42.207-68.586,94.966-68.586,54.517,0,100.241,29.9,100.241,84.414h219.828c1.758-193.448-174.1-267.311-323.587-267.311-189.931,0-321.828,117.828-321.828,244.449,0,86.172,28.138,204,239.172,260.276l109.035,26.379c61.552,15.828,89.689,33.414,89.689,68.586,0,47.483-51,75.621-117.828,75.621-80.9,0-121.345-51-121.345-98.483H1905.955C1907.714,1121.85,2074.783,1220.333,2247.128,1220.333Zm933.828-856.449c-79.138,0-211.034,45.724-246.207,149.483V-52.91H2704.37V1204.505h230.379V784.194c0-149.483,102-193.448,184.655-193.448,79.138,0,156.518,58.034,156.518,188.173v425.587H3506.3V754.3C3508.06,508.091,3395.508,363.884,3180.956,363.884Z" transform="translate(-4.884 52.91)" fill="#00196e"/>
</svg>
